<svg width="170" height="294" viewBox="0 0 170 294" fill="none" xmlns="http://www.w3.org/2000/svg">
<path d="M5.43698 3.42162C32.0697 4.17571 77.5339 19.8247 106.113 30.6938C123.355 37.2512 139.911 46.9337 149.396 62.7553C166.033 90.5075 170.735 128.739 161.553 189.336C148.891 272.893 50.8453 288.676 6.03986 290.301" stroke="#8C9277" stroke-width="6" stroke-linecap="round"/>
<path d="M10.2497 51.9789C47.0973 49.3631 121.259 62.713 126.693 114.077C132.127 165.442 124.086 189.189 118.94 197.512C109.008 215.02 86.9501 252.728 5.92676 251.016" stroke="#8C9277" stroke-width="6" stroke-linecap="round"/>
<path d="M11.4352 90.0642C42.4394 91.2143 105.928 108.855 89.0881 162.025C76.2873 202.441 28.7859 219.034 6.31471 213.284" stroke="#8C9277" stroke-width="6" stroke-linecap="round"/>
<path d="M10.1542 132.945C25.5142 131.303 54.0753 137.002 45.8834 157.505C37.6915 178.009 20.1098 174.019 12.2875 171.39" stroke="#8C9277" stroke-width="6" stroke-linecap="round"/>
<path d="M6.09524 24.026C51.4092 26.6288 142.338 48.4928 143.539 115.126C145.042 198.418 142.038 233.99 86.459 256.549C41.9961 274.595 12.3543 275.058 3.09129 273.033" stroke="#8C9277" stroke-width="6" stroke-linecap="round"/>
<path d="M9.1007 71.7452C43.6495 70.0099 112.297 82.8506 110.494 148.096C109.242 176.727 86.3093 233.643 4.59364 232.255M9.10003 109.92C30.3801 113.68 72.1893 127.62 69.185 153.301C65.4297 185.403 25.6234 195.815 9.85108 192.344" stroke="#8C9277" stroke-width="6" stroke-linecap="round"/>
<path d="M11.4622 146.62C18.834 146.972 32.3463 149.143 27.4212 155.009C22.4961 160.875 13.3044 160.388 10.2961 160.344" stroke="#8C9277" stroke-width="4" stroke-linecap="round"/>
</svg>
