<svg width="41" height="41" viewBox="0 0 41 41" fill="none" xmlns="http://www.w3.org/2000/svg">
<rect width="41" height="41" rx="5" fill="#895F3E"/>
<path fill-rule="evenodd" clip-rule="evenodd" d="M9.2002 20.5C9.2002 17.5584 11.6308 15.2 14.5939 15.2C16.7598 15.2 18.4362 16.5268 19.511 17.7128C20.059 18.3176 20.4815 18.9189 20.7667 19.3678C20.9099 19.5931 21.0198 19.7821 21.095 19.9168C21.1326 19.9842 21.1616 20.0382 21.1817 20.0765C21.1918 20.0956 21.1997 20.1108 21.2054 20.1219L21.2122 20.1353L21.2144 20.1396L21.2152 20.1411C21.2153 20.1414 21.2157 20.1422 20.5002 20.5C19.7847 20.8578 19.7848 20.858 19.7849 20.8582L19.7819 20.8523L19.7663 20.8225C19.7518 20.7949 19.7288 20.7521 19.6978 20.6965C19.6356 20.5851 19.5412 20.4225 19.4163 20.2259C19.1654 19.8311 18.7968 19.3075 18.3254 18.7872C17.3611 17.7232 16.0843 16.8 14.5939 16.8C12.4834 16.8 10.8002 18.4729 10.8002 20.5C10.8002 22.5272 12.4834 24.2 14.5939 24.2C16.0353 24.2 17.406 23.327 18.4052 22.2152C18.7005 21.8866 19.2064 21.8597 19.535 22.155C19.8636 22.4504 19.8905 22.9562 19.5952 23.2848C18.4382 24.5721 16.6691 25.8 14.5939 25.8C11.6308 25.8 9.2002 23.4416 9.2002 20.5ZM20.5002 20.5C19.7847 20.8578 19.7848 20.858 19.7849 20.8582L19.786 20.8604L19.7881 20.8647L19.795 20.8781C19.8007 20.8892 19.8086 20.9044 19.8186 20.9236C19.8388 20.9619 19.8678 21.0158 19.9054 21.0832C19.9806 21.2179 20.0905 21.4069 20.2337 21.6322C20.5189 22.0811 20.9414 22.6825 21.4894 23.2872C22.5642 24.4732 24.2406 25.8 26.4064 25.8C29.3696 25.8 31.8002 23.4416 31.8002 20.5C31.8002 17.5584 29.3696 15.2 26.4064 15.2C24.3312 15.2 22.5622 16.4279 21.4052 17.7152C21.1099 18.0438 21.1368 18.5497 21.4654 18.845C21.794 19.1404 22.2998 19.1134 22.5952 18.7848C23.5944 17.673 24.9651 16.8 26.4064 16.8C28.517 16.8 30.2002 18.4729 30.2002 20.5C30.2002 22.5272 28.517 24.2 26.4064 24.2C24.916 24.2 23.6393 23.2768 22.675 22.2128C22.2036 21.6926 21.835 21.1689 21.5841 20.7741C21.4592 20.5775 21.3648 20.4149 21.3026 20.3035C21.2716 20.2479 21.2486 20.2052 21.2341 20.1775L21.2185 20.1477L21.2152 20.1411C21.2153 20.1414 21.2157 20.1422 20.5002 20.5Z" fill="white"/>
</svg>
