<svg width="41" height="41" viewBox="0 0 41 41" fill="none" xmlns="http://www.w3.org/2000/svg">
<rect width="41" height="41" rx="5" fill="#895F3E"/>
<path fill-rule="evenodd" clip-rule="evenodd" d="M21.3903 12.4891C21.3903 11.9975 20.9918 11.5989 20.5002 11.5989C20.0086 11.5989 19.61 11.9975 19.61 12.4891V21.0225L16.6788 18.0913C16.3312 17.7436 15.7676 17.7436 15.4199 18.0913C15.0723 18.4389 15.0723 19.0025 15.4199 19.3501L19.8707 23.8009C20.2184 24.1486 20.782 24.1486 21.1296 23.8009L25.5804 19.3501C25.928 19.0025 25.928 18.4389 25.5804 18.0913C25.2328 17.7436 24.6692 17.7436 24.3215 18.0913L21.3903 21.0224V12.4891ZM12.4888 22.2809C12.9804 22.2809 13.3789 22.6794 13.3789 23.171V26.7317C13.3789 26.9677 13.4727 27.1942 13.6397 27.3611C13.8066 27.528 14.033 27.6218 14.2691 27.6218H26.7313C26.9674 27.6218 27.1938 27.528 27.3608 27.3611C27.5277 27.1941 27.6215 26.9677 27.6215 26.7317V23.171C27.6215 22.6794 28.02 22.2809 28.5116 22.2809C29.0033 22.2809 29.4018 22.6794 29.4018 23.171V26.7317C29.4018 27.4399 29.1204 28.1192 28.6196 28.62C28.1188 29.1208 27.4396 29.4021 26.7313 29.4021H14.2691C13.5609 29.4021 12.8816 29.1208 12.3808 28.62C11.88 28.1192 11.5986 27.4399 11.5986 26.7317V23.171C11.5986 22.6794 11.9972 22.2809 12.4888 22.2809Z" fill="white"/>
</svg>
