<svg width="41" height="41" viewBox="0 0 41 41" fill="none" xmlns="http://www.w3.org/2000/svg">
<rect width="41" height="41" rx="5" fill="#895F3E"/>
<g clip-path="url(#clip0_87_9)">
<path fill-rule="evenodd" clip-rule="evenodd" d="M14.928 14.1681C15.121 13.9751 15.3828 13.8667 15.6557 13.8667H25.3932V23.8417H15.6557C15.3008 23.8417 14.9526 23.9061 14.6266 24.0284V14.8958C14.6266 14.6229 14.735 14.3611 14.928 14.1681ZM12.7266 26.7708V14.8958C12.7266 14.119 13.0352 13.3739 13.5845 12.8246C14.1338 12.2753 14.8789 11.9667 15.6557 11.9667H26.3432C26.8679 11.9667 27.2932 12.392 27.2932 12.9167V24.7917V28.75C27.2932 29.2747 26.8679 29.7 26.3432 29.7H15.6557C14.8789 29.7 14.1338 29.3914 13.5845 28.8421C13.0352 28.2928 12.7266 27.5477 12.7266 26.7708ZM25.3932 25.7417V27.8H15.6557C15.3828 27.8 15.121 27.6916 14.928 27.4986C14.735 27.3056 14.6266 27.0438 14.6266 26.7708C14.6266 26.4979 14.735 26.2361 14.928 26.0431C15.121 25.8501 15.3828 25.7417 15.6557 25.7417H25.3932Z" fill="white"/>
</g>
<defs>
<clipPath id="clip0_87_9">
<rect width="19" height="19" fill="white" transform="translate(10.5098 11.3335)"/>
</clipPath>
</defs>
</svg>
